<svg width="2012" height="1423" viewBox="0 0 2012 1423" fill="none" xmlns="http://www.w3.org/2000/svg">
<g id="160218_wind-energy" clip-path="url(#clip0)">
<g id="non-moving-parts">
<path id="background" d="M0 1347.59H2011.94V0.00284725H0V1347.59Z" fill="#F8E5D6"/>
<g id="g16">
<g id="g22">
<path id="path24" d="M638.496 442.372H404.672C396.031 442.372 389.027 435.367 389.027 426.728V417.767C389.027 409.126 396.031 402.123 404.672 402.123H638.496C647.136 402.123 654.14 409.126 654.14 417.767V426.728C654.14 435.367 647.136 442.372 638.496 442.372Z" fill="#8B5D3B"/>
</g>
<g id="g26">
<path id="path28" d="M389.027 402.122V412.006V417.313V426.825L402.283 418.314L415.539 426.825L428.794 418.314L442.05 426.825L455.306 418.314L468.561 426.825L481.818 418.314L495.073 426.825L508.329 418.314L521.583 426.825L534.839 418.314L548.095 426.825L561.351 418.314L574.607 426.825L587.862 418.314L601.117 426.825L614.374 418.314L627.629 426.825L640.885 418.314L654.141 426.825V417.313V412.006V402.122H389.027Z" fill="#644A38"/>
</g>
<g id="g30">
<path id="path32" d="M389.027 399.833V409.717V415.024V424.536L402.283 416.025L415.539 424.536L428.794 416.025L442.05 424.536L455.306 416.025L468.561 424.536L481.818 416.025L495.073 424.536L508.329 416.025L521.583 424.536L534.839 416.025L548.095 424.536L561.351 416.025L574.607 424.536L587.862 416.025L601.117 424.536L614.374 416.025L627.629 424.536L640.885 416.025L654.141 424.536V415.024V409.717V399.833H389.027Z" fill="#8CC63F"/>
</g>
<g id="g34">
<path id="path36" d="M449.536 345.525V353.914V345.525H445.483V399.833H453.59V345.525H449.536Z" fill="#8B5D3B"/>
</g>
<g id="g38">
<path id="path40" d="M449.536 291.355V353.914C466.811 353.914 480.815 339.91 480.815 322.635C480.815 305.359 466.811 291.355 449.536 291.355Z" fill="#71A140"/>
</g>
<g id="g42">
<path id="path44" d="M418.258 322.635C418.258 339.91 432.262 353.914 449.536 353.914V291.355C432.262 291.355 418.258 305.359 418.258 322.635Z" fill="#8CC63F"/>
</g>
<g id="g46">
<path id="path48" d="M806.664 697.935H821.636V410.229L809.967 394.5L806.664 697.935Z" fill="#E7E8E9"/>
</g>
<g id="g50">
<path id="path52" d="M810.098 382.379L809.966 394.5L821.636 410.23V382.379H810.098Z" fill="#E7E8E9"/>
</g>
<g id="g54">
<path id="path56" d="M833.176 382.379H821.637V697.935H836.609L833.176 382.379Z" fill="#BCBEC0"/>
</g>
<g id="g58">
<path id="path60" d="M953.521 740.473H719.697C711.057 740.473 704.052 733.469 704.052 724.829V715.867C704.052 707.227 711.057 700.225 719.697 700.225H953.521C962.161 700.225 969.165 707.227 969.165 715.867V724.829C969.165 733.469 962.161 740.473 953.521 740.473Z" fill="#8B5D3B"/>
</g>
<g id="g62">
<path id="path64" d="M704.052 700.224V710.108V715.415V724.925L717.308 716.415L730.564 724.925L743.82 716.415L757.076 724.925L770.331 716.415L783.585 724.925L796.843 716.415L810.097 724.925L823.355 716.415L836.609 724.925L849.864 716.415L863.12 724.925L876.375 716.415L889.632 724.925L902.887 716.415L916.143 724.925L929.399 716.415L942.653 724.925L955.909 716.415L969.165 724.925V715.415V710.108V700.224H704.052Z" fill="#644A38"/>
</g>
<g id="g66">
<path id="path68" d="M704.052 697.935V707.819V713.125V722.636L717.308 714.125L730.564 722.636L743.82 714.125L757.076 722.636L770.331 714.125L783.585 722.636L796.843 714.125L810.097 722.636L823.355 714.125L836.609 722.636L849.864 714.125L863.12 722.636L876.375 714.125L889.632 722.636L902.887 714.125L916.143 722.636L929.399 714.125L942.653 722.636L955.909 714.125L969.165 722.636V713.125V707.819V697.935H704.052Z" fill="#8CC63F"/>
</g>
<g id="g70">
<path id="path72" d="M821.637 576.16H807.99L807.827 591.036H821.637V576.16Z" fill="#28AAE1"/>
</g>
<g id="g74">
<path id="path76" d="M807.659 606.485L806.664 697.935H821.636V606.485H807.659Z" fill="#28AAE1"/>
</g>
<g id="g78">
<path id="path80" d="M821.637 591.036H835.445L835.283 576.16H821.637V591.036Z" fill="#1B75BC"/>
</g>
<g id="g82">
<path id="path84" d="M821.637 697.935H836.609L835.613 606.485H821.637V697.935Z" fill="#1B75BC"/>
</g>
<g id="g86">
<path id="path88" d="M369.725 1072.92V1080.06V1072.92H366.273V1119.18H373.179V1072.92H369.725Z" fill="#8B5D3B"/>
</g>
<g id="g90">
<path id="path92" d="M369.725 1107.52H386.745L369.725 1063.17V1107.52Z" fill="#8CC63F"/>
</g>
<g id="g94">
<path id="path96" d="M369.725 1107.52H352.705L369.725 1063.17V1107.52Z" fill="#71A140"/>
</g>
<g id="g98">
<path id="path100" d="M457.281 1088.47V1095.62V1088.47H453.828V1134.74H460.733V1088.47H457.281Z" fill="#8B5D3B"/>
</g>
<g id="g102">
<path id="path104" d="M457.281 1123.08H474.301L457.281 1078.72V1123.08Z" fill="#8CC63F"/>
</g>
<g id="g106">
<path id="path108" d="M457.281 1123.08H440.261L457.281 1078.72V1123.08Z" fill="#71A140"/>
</g>
<g id="g110">
<path id="path112" d="M499.504 1104.82V1111.97V1104.82H496.051V1151.09H502.956V1104.82H499.504Z" fill="#8B5D3B"/>
</g>
<g id="g114">
<path id="path116" d="M499.504 1139.43H516.524L499.504 1095.07V1139.43Z" fill="#8CC63F"/>
</g>
<g id="g118">
<path id="path120" d="M499.504 1139.43H482.483L499.504 1095.07V1139.43Z" fill="#71A140"/>
</g>
<g id="g122">
<path id="path124" d="M0 1119H344.132C533.317 1119 505.889 1204 749.074 1204H1153.71C1286.13 1204 1277.06 1119 1438.5 1119H2012V1423H0V1119Z" fill="#D7E9B8"/>
</g>
<g id="g126">
<g id="g140">
<g id="g138" opacity="0.529999">
<g id="g136" opacity="0.529999">
<path id="path134" opacity="0.529999" d="M111.689 1177.17H85.4834C84.7887 1177.17 84.2261 1177.73 84.2261 1178.43V1180.15C84.2261 1180.85 84.7887 1181.41 85.4834 1181.41H111.689C112.382 1181.41 112.943 1180.85 112.943 1180.15V1178.43C112.943 1177.73 112.382 1177.17 111.689 1177.17Z" fill="#7C7D7D"/>
</g>
</g>
</g>
</g>
<g id="g142">
<path id="path144" d="M98.586 1110.29V1120.95V1110.29H93.4366V1179.29H103.735V1110.29H98.586Z" fill="#8B5D3B"/>
</g>
<g id="g146">
<path id="path148" d="M98.5859 1161.9H123.971L98.5859 1095.74V1161.9Z" fill="#8CC63F"/>
</g>
<g id="g150">
<path id="path152" d="M98.586 1161.9H73.2007L98.586 1095.74V1161.9Z" fill="#71A140"/>
</g>
<g id="g154">
<path id="path156" d="M191.306 1072.92V1080.06V1072.92H187.853V1119.18H194.758V1072.92H191.306Z" fill="#8B5D3B"/>
</g>
<g id="g158">
<path id="path160" d="M191.306 1107.52H208.326L191.306 1063.17V1107.52Z" fill="#8CC63F"/>
</g>
<g id="g162">
<path id="path164" d="M191.306 1107.52H174.285L191.306 1063.17V1107.52Z" fill="#71A140"/>
</g>
<g id="g166">
<path id="path168" d="M238.711 1072.92V1080.06V1072.92H235.259V1119.18H242.164V1072.92H238.711Z" fill="#8B5D3B"/>
</g>
<g id="g170">
<path id="path172" d="M238.711 1107.52H255.731L238.711 1063.17V1107.52Z" fill="#8CC63F"/>
</g>
<g id="g174">
<path id="path176" d="M238.711 1107.52H221.691L238.711 1063.17V1107.52Z" fill="#71A140"/>
</g>
<g id="g178">
<g id="g192">
<g id="g190" opacity="0.529999">
<g id="g188" opacity="0.529999">
<path id="path186" opacity="0.529999" d="M208.436 1231.28H179.697C179.004 1231.28 178.441 1231.84 178.441 1232.53V1234.64C178.441 1235.33 179.004 1235.89 179.697 1235.89H208.436C209.131 1235.89 209.692 1235.33 209.692 1234.64V1232.53C209.692 1231.84 209.131 1231.28 208.436 1231.28Z" fill="#7C7D7D"/>
</g>
</g>
</g>
</g>
<g id="g194">
<path id="path196" d="M194.068 1158.49V1170.09V1158.49H188.464V1233.59H199.67V1158.49H194.068Z" fill="#8B5D3B"/>
</g>
<g id="g198">
<path id="path200" d="M194.068 1214.67H221.692L194.068 1142.67V1214.67Z" fill="#8CC63F"/>
</g>
<g id="g202">
<path id="path204" d="M194.068 1214.67H166.442L194.068 1142.67V1214.67Z" fill="#71A140"/>
</g>
<g id="g206">
<path id="path208" d="M1280.65 503.48L1376.89 407.238L1308.78 339.126L1357 290.906L1322.97 256.879L1346.99 232.862L1330.01 215.883L1342.1 203.794L1333.55 195.252L1339.55 189.254L1335.22 184.919L1338.24 181.896L1336.27 179.923L1337.22 178.974" stroke="#A97B50" stroke-width="2.66667" stroke-miterlimit="10" stroke-linejoin="bevel"/>
</g>
<g id="g210">
<path id="path212" d="M1393.49 503.883L1297.25 407.641L1365.36 339.528L1317.14 291.308L1351.17 257.283L1327.15 233.265L1344.13 216.287L1332.04 204.197L1340.58 195.656L1334.58 189.656L1338.92 185.321L1335.9 182.3L1337.87 180.327L1336.92 179.377" stroke="#A97B50" stroke-width="2.66667" stroke-miterlimit="10" stroke-linejoin="bevel"/>
</g>
<g id="g214">
<path id="path216" d="M1430.87 506.173H1218.79C1218.79 506.173 1218.78 506.172 1218.78 506.172H984.954C976.315 506.172 969.31 513.176 969.31 521.816V530.777C969.31 539.417 976.315 546.422 984.954 546.422H1197.03H1197.04H1430.87C1439.51 546.422 1446.51 539.418 1446.51 530.777V521.816C1446.51 513.177 1439.51 506.173 1430.87 506.173Z" fill="#8B5D3B"/>
</g>
<g id="g218">
<path id="path220" d="M1234.42 506.173V506.172H969.31V516.056V521.363V530.875L982.564 522.364L995.822 530.875L1009.08 522.364L1022.33 530.875L1035.59 522.364L1048.84 530.875L1062.1 522.364L1075.36 530.875L1088.61 522.364L1101.87 530.875L1115.12 522.364L1128.38 530.875L1141.63 522.364L1154.89 530.875L1168.14 522.364L1181.4 530.875L1194.66 522.364L1207.91 530.875L1221.17 522.364L1234.42 530.875L1247.68 522.364L1260.93 530.875L1274.19 522.364L1287.45 530.875L1300.7 522.364L1313.96 530.875L1327.21 522.364L1340.47 530.875L1353.72 522.364L1366.98 530.875L1380.23 522.364L1393.49 530.875L1406.75 522.364L1420 530.875L1433.26 522.364L1446.51 530.875V521.364V516.057V506.173H1234.42Z" fill="#644A38"/>
</g>
<g id="g222">
<path id="path224" d="M1234.42 503.884V503.883H969.31V513.767V519.073V528.585L982.564 520.075L995.822 528.585L1009.08 520.075L1022.33 528.585L1035.59 520.075L1048.84 528.585L1062.1 520.075L1075.36 528.585L1088.61 520.075L1101.87 528.585L1115.12 520.075L1128.38 528.585L1141.63 520.075L1154.89 528.585L1168.14 520.075L1181.4 528.585L1194.66 520.075L1207.91 528.585L1221.17 520.075L1234.42 528.585L1247.68 520.075L1260.93 528.585L1274.19 520.075L1287.45 528.585L1300.7 520.075L1313.96 528.585L1327.21 520.075L1340.47 528.585L1353.72 520.075L1366.98 528.585L1380.23 520.075L1393.49 528.585L1406.75 520.075L1420 528.585L1433.26 520.075L1446.51 528.585V519.075V513.768V503.884H1234.42Z" fill="#8CC63F"/>
</g>
<g id="g226">
<path id="path228" d="M1393.49 503.883L1337.03 174.308" stroke="#3C2415" stroke-width="4" stroke-miterlimit="10"/>
</g>
<g id="g230">
<path id="path232" d="M1337.03 174.309V503.883" stroke="#3C2415" stroke-width="4" stroke-miterlimit="10"/>
</g>
<g id="g234">
<path id="path236" d="M1280.65 503.48L1337.03 174.308" stroke="#3C2415" stroke-width="4" stroke-miterlimit="10"/>
</g>
<g id="g238">
<path id="path240" d="M1559.62 927.379H1347.55C1347.54 927.379 1347.54 927.377 1347.53 927.377H1113.71C1105.07 927.377 1098.06 934.381 1098.06 943.021V951.983C1098.06 960.623 1105.07 967.627 1113.71 967.627H1325.78C1325.79 967.627 1325.79 967.628 1325.8 967.628H1559.62C1568.26 967.628 1575.27 960.624 1575.27 951.983V943.021C1575.27 934.383 1568.26 927.379 1559.62 927.379Z" fill="#8B5D3B"/>
</g>
<g id="g242">
<path id="path244" d="M1363.18 927.379V927.377H1098.06V937.261V942.568V952.08L1111.32 943.569L1124.58 952.08L1137.83 943.569L1151.09 952.08L1164.34 943.569L1177.6 952.08L1190.86 943.569L1204.11 952.08L1217.37 943.569L1230.62 952.08L1243.88 943.569L1257.13 952.08L1270.39 943.569L1283.64 952.08L1296.9 943.569L1310.16 952.08L1323.41 943.569L1336.67 952.08L1349.92 943.569L1363.18 952.08L1376.43 943.569L1389.69 952.08L1402.94 943.569L1416.2 952.08L1429.46 943.569L1442.71 952.08L1455.97 943.569L1469.22 952.08L1482.48 943.569L1495.73 952.08L1508.99 943.569L1522.25 952.08L1535.5 943.569L1548.76 952.08L1562.01 943.569L1575.27 952.08V942.568V937.261V927.379H1363.18Z" fill="#644A38"/>
</g>
<g id="g246">
<path id="path248" d="M1363.18 925.09V925.088H1098.06V934.972V940.279V949.791L1111.32 941.28L1124.58 949.791L1137.83 941.28L1151.09 949.791L1164.34 941.28L1177.6 949.791L1190.86 941.28L1204.11 949.791L1217.37 941.28L1230.62 949.791L1243.88 941.28L1257.13 949.791L1270.39 941.28L1283.64 949.791L1296.9 941.28L1310.16 949.791L1323.41 941.28L1336.67 949.791L1349.92 941.28L1363.18 949.791L1376.43 941.28L1389.69 949.791L1402.94 941.28L1416.2 949.791L1429.46 941.28L1442.71 949.791L1455.97 941.28L1469.22 949.791L1482.48 941.28L1495.73 949.791L1508.99 941.28L1522.25 949.791L1535.5 941.28L1548.76 949.791L1562.01 941.28L1575.27 949.791V940.28V934.974V925.09H1363.18Z" fill="#8CC63F"/>
</g>
<g id="g250">
<path id="path252" d="M1330.34 873.742L1323.47 694.725L1278.76 650.015L1234.06 694.725L1227.19 873.742H1215.65V925.089H1341.88V873.742H1330.34Z" fill="#848A94"/>
</g>
<g id="g254">
<path id="path256" d="M1278.76 637.483L1217.12 699.127V711.66L1278.76 650.015L1340.41 711.66V699.127L1278.76 637.483Z" fill="#854343"/>
</g>
<path id="path258" d="M1292.86 881.832H1264.67V925.088H1292.86V881.832Z" fill="#A97B50"/>
<g id="g264">
<path id="path266" d="M1942.32 673.544H1730.24C1730.24 673.544 1730.24 673.543 1730.23 673.543H1496.41C1487.77 673.543 1480.76 680.547 1480.76 689.187V698.148C1480.76 706.788 1487.77 713.792 1496.41 713.792H1708.48C1708.49 713.792 1708.49 713.794 1708.5 713.794H1942.32C1950.96 713.794 1957.96 706.79 1957.96 698.148V689.187C1957.96 680.548 1950.96 673.544 1942.32 673.544Z" fill="#8B5D3B"/>
</g>
<g id="g268">
<path id="path270" d="M1745.87 673.544V673.543H1480.76V683.427V688.733V698.245L1494.02 689.735L1507.27 698.245L1520.53 689.735L1533.79 698.245L1547.04 689.735L1560.29 698.245L1573.55 689.735L1586.81 698.245L1600.06 689.735L1613.32 698.245L1626.57 689.735L1639.83 698.245L1653.09 689.735L1666.34 698.245L1679.6 689.735L1692.85 698.245L1706.11 689.735L1719.36 698.245L1732.62 689.735L1745.87 698.245L1759.13 689.735L1772.39 698.245L1785.64 689.735L1798.9 698.245L1812.15 689.735L1825.41 698.245L1838.66 689.735L1851.92 698.245L1865.17 689.735L1878.43 698.245L1891.69 689.735L1904.94 698.245L1918.2 689.735L1931.45 698.245L1944.71 689.735L1957.96 698.245V688.733V683.427V673.544H1745.87Z" fill="#644A38"/>
</g>
<g id="g272">
<path id="path274" d="M1745.87 671.255V671.254H1480.76V681.138V686.444V695.956L1494.02 687.446L1507.27 695.956L1520.53 687.446L1533.79 695.956L1547.04 687.446L1560.29 695.956L1573.55 687.446L1586.81 695.956L1600.06 687.446L1613.32 695.956L1626.57 687.446L1639.83 695.956L1653.09 687.446L1666.34 695.956L1679.6 687.446L1692.85 695.956L1706.11 687.446L1719.36 695.956L1732.62 687.446L1745.87 695.956L1759.13 687.446L1772.39 695.956L1785.64 687.446L1798.9 695.956L1812.15 687.446L1825.41 695.956L1838.66 687.446L1851.92 695.956L1865.17 687.446L1878.43 695.956L1891.69 687.446L1904.94 695.956L1918.2 687.446L1931.45 695.956L1944.71 687.446L1957.96 695.956V686.444V681.139V671.255H1745.87Z" fill="#8CC63F"/>
</g>
</g>
</g>
<g id="turbine">
<g id="g284">
<path id="path286" d="M730.249 287.063L821.637 410.229C816.745 387.273 747.262 298.168 730.249 287.063Z" fill="#1B75BC"/>
</g>
<g id="g288">
<path id="path290" d="M730.249 287.063C733.682 309.376 801.677 399.208 821.637 410.229L730.249 287.063Z" fill="#28AAE1"/>
</g>
<g id="g292">
<path id="path294" d="M730.249 287.063C733.682 309.376 801.677 399.208 821.637 410.229L730.249 287.063Z" fill="#28AAE1"/>
</g>
<g id="g296">
<path id="path298" d="M760.506 550.956L821.478 410.229C804.044 425.944 761.618 530.669 760.506 550.956Z" fill="#1B75BC"/>
</g>
<g id="g300">
<path id="path302" d="M760.506 550.956C778.114 536.825 821.914 433.025 821.478 410.229L760.506 550.956Z" fill="#28AAE1"/>
</g>
<g id="g304">
<path id="path306" d="M760.506 550.956C778.114 536.825 821.914 433.025 821.478 410.229L760.506 550.956Z" fill="#28AAE1"/>
</g>
<g id="g308">
<path id="path310" d="M973.996 392.745L821.636 410.306C843.964 417.549 955.871 401.926 973.996 392.745Z" fill="#1B75BC"/>
</g>
<g id="g312">
<path id="path314" d="M973.996 392.745C952.955 384.561 841.16 398.532 821.636 410.306L973.996 392.745Z" fill="#28AAE1"/>
</g>
<g id="g316">
<path id="path318" d="M973.996 392.745C952.955 384.561 841.16 398.532 821.636 410.306L973.996 392.745Z" fill="#28AAE1"/>
</g>
<g id="g320">
<path id="path322" d="M821.637 390.296C817.185 390.296 813.089 391.772 809.771 394.238L821.637 410.229L809.771 394.238C804.883 397.872 801.702 403.67 801.702 410.229C801.702 421.238 810.627 430.162 821.637 430.162C832.646 430.162 841.57 421.238 841.57 410.229C841.57 399.22 832.646 390.296 821.637 390.296Z" fill="#E7E8E9"/>
</g>
<g id="g324">
<path id="path326" d="M821.637 398.612C819.043 398.612 816.655 399.473 814.722 400.911L821.637 410.229L814.722 400.911C811.874 403.028 810.019 406.408 810.019 410.229C810.019 416.644 815.221 421.847 821.637 421.847C828.053 421.847 833.254 416.644 833.254 410.229C833.254 403.813 828.053 398.612 821.637 398.612Z" fill="#28AAE1"/>
</g>
</g>
<g id="mill">
<g id="g336">
<path id="path338" d="M1288.86 734.031C1288.86 728.454 1284.34 723.934 1278.76 723.934C1273.19 723.934 1268.67 728.454 1268.67 734.031C1268.67 739.608 1273.19 744.127 1278.76 744.127C1284.34 744.127 1288.86 739.608 1288.86 734.031Z" fill="#A97B50"/>
</g>
<g id="g340">
<path id="path342" d="M1280.93 733.284L1239.83 614.284L1235.5 615.778L1218.56 621.63L1250.64 714.512L1267.58 708.658L1276.6 734.778L1280.93 733.284Z" fill="#DA9B5A"/>
</g>
<g id="g344">
<path id="path346" d="M1298.28 705.901L1304.14 722.846L1397.02 690.768L1391.16 673.822L1298.28 705.901ZM1397.02 690.768L1278.02 731.868L1279.51 736.194L1398.51 695.096L1397.02 690.768Z" fill="#DA9B5A"/>
</g>
<g id="g348">
<path id="path350" d="M1306.89 753.549L1289.95 759.403L1322.03 852.284L1338.97 846.431L1306.89 753.549ZM1276.6 734.779L1317.7 853.779L1322.03 852.284L1280.93 733.284L1276.6 734.779Z" fill="#DA9B5A"/>
</g>
<g id="g352">
<path id="path354" d="M1160.51 777.293L1166.36 794.24L1259.24 762.161L1253.39 745.214L1160.51 777.293ZM1278.02 731.868L1159.02 772.966L1160.51 777.293L1279.51 736.194L1278.02 731.868Z" fill="#DA9B5A"/>
</g>
</g>
<path id="aermotor" d="M1337.04 207.623C1333.96 207.623 1331 207.193 1328.18 206.403L1312.32 262.963C1320.18 265.165 1328.47 266.367 1337.04 266.367C1353.91 266.367 1369.7 261.785 1383.27 253.825C1373.58 237.269 1362.5 218.323 1353.6 203.13C1348.74 205.982 1343.08 207.623 1337.04 207.623ZM1337.04 142.014C1340.1 142.014 1343.05 142.442 1345.87 143.226L1361.68 86.6528C1353.83 84.4661 1345.58 83.2701 1337.04 83.2701C1320.19 83.2701 1304.42 87.8394 1290.87 95.7754C1300.54 112.339 1311.61 131.294 1320.49 146.495C1325.35 143.651 1331 142.014 1337.04 142.014ZM1368.82 166.658L1425.73 152.046C1419.52 127.787 1403.6 107.43 1382.38 95.3021C1372.88 111.962 1362 131.034 1353.28 146.325C1360.89 150.671 1366.59 157.966 1368.82 166.658ZM1428.57 174.306C1409.39 174.414 1387.44 174.537 1369.84 174.635C1369.84 174.697 1369.84 174.758 1369.84 174.818C1369.84 183.998 1366.07 192.293 1359.99 198.247L1401.09 240.199C1418.05 223.582 1428.58 200.435 1428.58 174.818C1428.58 174.647 1428.57 174.478 1428.57 174.306ZM1304.23 174.818C1304.23 165.63 1308.01 157.329 1314.1 151.373L1273.03 109.387C1256.04 126.007 1245.49 149.175 1245.49 174.818C1245.49 174.965 1245.5 175.109 1245.5 175.254C1264.68 175.163 1286.63 175.058 1304.23 174.975C1304.23 174.923 1304.23 174.873 1304.23 174.818ZM1305.25 182.951L1248.33 197.514C1254.52 221.779 1270.41 242.15 1291.62 254.295C1301.14 237.641 1312.03 218.583 1320.76 203.298C1313.16 198.945 1307.47 191.647 1305.25 182.951Z" fill="#A97B50"/>
<g id="darrieus">
<g id="g370">
<g id="g376">
<path id="path378" d="M1901.75 285.333C1881.99 225.176 1843.04 169.74 1789.12 125.016L1780.39 117.768V140.689H1791.06V140.688C1838.9 182.755 1873.56 233.707 1891.62 288.663C1910.16 345.116 1911.08 405.037 1894.27 461.949C1877.02 520.321 1841.43 574.375 1791.06 618.899H1780.39V641.901L1789.14 634.601C1845.78 587.353 1885.67 528.696 1904.5 464.972C1921.93 405.972 1920.98 343.855 1901.75 285.333Z" fill="#566273"/>
</g>
<g id="g380">
<path id="path382" d="M1769.72 618.898C1719.34 574.374 1683.75 520.321 1666.51 461.949C1649.69 405.037 1650.61 345.116 1669.16 288.662C1687.21 233.706 1721.87 182.756 1769.72 140.689H1780.39V117.768L1771.65 125.016C1717.73 169.74 1678.78 225.176 1659.02 285.333C1639.8 343.854 1638.85 405.973 1656.28 464.973C1675.11 528.697 1715 587.353 1771.64 634.601L1780.39 641.901V618.898H1769.72Z" fill="#566273"/>
</g>
<path id="path384" d="M1790.29 671.255H1770.49V140.688H1790.29V671.255Z" fill="#566273"/>
</g>
</g>
</g>
<defs>
<clipPath id="clip0">
<rect width="2011.93" height="1422.59" fill="white"/>
</clipPath>
</defs>
</svg>
